<?xml version="1.0" standalone="no"?>
<!DOCTYPE svg PUBLIC "-//W3C//DTD SVG 20010904//EN"
 "http://www.w3.org/TR/2001/REC-SVG-20010904/DTD/svg10.dtd">
<svg version="1.0" xmlns="http://www.w3.org/2000/svg"
 width="500.000000pt" height="500.000000pt" viewBox="0 0 500.000000 500.000000"
 preserveAspectRatio="xMidYMid meet">

<g transform="translate(0.000000,500.000000) scale(0.100000,-0.100000)"
fill="#FFF" stroke="none">
<path d="M1792 3455 c26 -14 55 -36 64 -50 75 -115 -61 -305 -218 -305 -43 0
-41 -1 -130 109 -75 94 -227 180 -300 169 -18 -3 -10 -10 42 -38 118 -64 210
-180 210 -265 0 -49 -52 -103 -144 -150 -100 -50 -131 -44 -182 41 -22 36 -26
4 -9 -70 14 -59 15 -81 6 -107 -20 -56 -7 -190 17 -189 4 1 16 20 27 43 17 36
28 45 75 62 30 11 75 34 99 52 46 34 138 73 173 73 12 0 36 -5 54 -12 49 -18
86 1 78 40 -5 25 -2 31 29 45 44 21 60 21 120 0 44 -16 50 -16 75 -1 15 9 36
30 47 47 11 16 25 30 32 31 7 0 24 16 39 35 25 34 26 36 9 49 -19 13 -17 17
27 49 10 8 19 34 24 71 6 53 5 58 -10 53 -24 -9 -34 23 -12 39 16 11 16 15 -4
54 -17 34 -24 39 -35 30 -12 -10 -16 -9 -20 2 -3 8 -5 21 -3 29 4 20 -117 78
-177 84 l-50 6 47 -26z m-220 -472 c22 -20 23 -42 2 -71 -18 -26 -50 -28 -76
-5 -22 20 -23 42 -2 71 18 26 50 28 76 5z m-162 -108 c0 -8 -7 -15 -15 -15
-16 0 -20 12 -8 23 11 12 23 8 23 -8z m-100 -29 c0 -25 -46 -81 -69 -84 -53
-8 -52 43 2 77 37 24 67 27 67 7z"/>
<path d="M3290 3341 c0 -14 9 -20 35 -23 31 -4 35 -1 35 19 0 20 -5 23 -35 23
-28 0 -35 -4 -35 -19z"/>
<path d="M3397 3338 c-8 -28 -6 -30 35 -31 27 -2 34 2 36 19 2 15 -4 23 -20
28 -37 10 -45 7 -51 -16z"/>
<path d="M3208 3343 c-31 -8 -21 -33 12 -33 23 0 30 4 30 20 0 20 -8 22 -42
13z"/>
<path d="M3506 3324 c-11 -28 -6 -41 19 -52 36 -17 40 -15 53 14 11 23 10 26
-23 40 -42 17 -42 17 -49 -2z"/>
<path d="M3114 3307 c-15 -9 -19 -18 -14 -37 12 -50 66 -32 55 19 -7 34 -11
36 -41 18z"/>
<path d="M3290 3276 c0 -17 7 -25 25 -28 28 -6 35 -1 35 23 0 9 -10 19 -22 23
-35 9 -38 8 -38 -18z"/>
<path d="M1150 3283 c0 -5 19 -17 42 -28 98 -47 178 -135 194 -213 7 -37 12
-39 30 -14 32 42 6 117 -61 174 -55 48 -205 107 -205 81z"/>
<path d="M3207 3284 c-17 -18 -6 -35 21 -32 16 2 27 9 27 18 0 16 -36 26 -48
14z"/>
<path d="M3380 3262 c0 -27 14 -42 39 -42 9 0 34 51 28 56 -2 2 -18 7 -35 10
-30 6 -32 5 -32 -24z"/>
<path d="M3610 3265 c-10 -19 -10 -27 -1 -39 10 -12 9 -14 -7 -9 -14 3 -26 -5
-42 -27 -22 -30 -22 -32 -4 -51 l19 -21 16 21 c10 12 22 21 28 21 6 0 11 4 11
10 0 5 14 26 32 46 l32 36 -25 19 c-32 25 -43 24 -59 -6z"/>
<path d="M2998 3252 c-34 -21 -36 -32 -4 -32 41 0 76 18 70 35 -8 20 -32 19
-66 -3z"/>
<path d="M3471 3238 c-6 -17 -10 -32 -9 -33 2 -1 13 -7 25 -14 19 -10 24 -7
42 18 12 16 21 31 21 34 0 4 -56 27 -66 27 -1 0 -7 -14 -13 -32z"/>
<path d="M2386 3196 c-55 -38 -97 -94 -120 -161 -17 -52 -17 -51 62 -34 l49
10 6 50 c4 27 20 77 36 109 17 33 27 60 23 60 -4 -1 -29 -16 -56 -34z"/>
<path d="M3682 3177 c-23 -23 -42 -48 -42 -54 0 -6 -10 -17 -21 -25 -21 -13
-21 -15 -5 -46 22 -42 51 -34 43 13 -4 27 -2 32 11 28 11 -2 34 13 61 41 44
45 44 46 26 66 -10 11 -21 20 -24 20 -4 0 -26 -19 -49 -43z"/>
<path d="M2616 3194 c-62 -22 -131 -71 -160 -112 -38 -55 -35 -62 32 -62 l57
0 18 43 c9 23 38 66 63 95 49 56 49 58 -10 36z"/>
<path d="M2760 3121 c-58 -18 -160 -82 -160 -101 0 -5 22 -15 50 -23 l50 -15
75 74 75 74 -33 -1 c-17 0 -43 -4 -57 -8z"/>
<path d="M3765 3109 c-16 -11 -40 -24 -52 -29 -25 -10 -31 -47 -10 -56 7 -2
41 9 75 26 59 29 61 31 50 55 -14 30 -24 31 -63 4z"/>
<path d="M2196 3095 c-38 -38 -65 -83 -79 -131 l-15 -52 49 22 c45 19 49 24
49 56 0 19 5 53 10 75 11 46 8 52 -14 30z"/>
<path d="M2875 3016 c-56 -14 -86 -28 -103 -49 -10 -11 -2 -18 38 -37 l50 -24
28 27 c15 14 51 39 80 55 48 26 51 30 30 35 -32 9 -65 7 -123 -7z"/>
<path d="M3801 3015 c-18 -8 -44 -15 -57 -15 -19 0 -24 -5 -24 -25 0 -14 6
-28 14 -31 13 -5 122 19 132 29 9 9 -8 57 -20 57 -6 -1 -26 -7 -45 -15z"/>
<path d="M3657 2983 c-4 -3 -7 -15 -7 -25 0 -13 7 -18 26 -18 20 0 25 4 20 16
-3 9 -6 20 -6 25 0 10 -23 12 -33 2z"/>
<path d="M2430 2960 c-11 -7 -12 -14 -4 -27 17 -27 28 -25 47 7 18 30 18 30
-5 30 -13 0 -30 -5 -38 -10z"/>
<path d="M2314 2939 c-3 -6 3 -23 15 -37 11 -15 32 -48 46 -73 22 -42 50 -67
63 -55 10 10 -20 102 -45 139 -26 37 -64 50 -79 26z"/>
<path d="M2509 2921 c-40 -41 -39 -80 5 -128 18 -21 38 -48 44 -60 l12 -21 72
29 c93 36 187 39 283 7 48 -15 69 -18 77 -10 20 20 0 37 -118 98 -235 122
-319 140 -375 85z"/>
<path d="M2234 2915 c-17 -14 -17 -16 -3 -25 28 -16 111 -146 130 -202 21 -62
35 -64 33 -4 -2 47 -38 125 -91 199 -38 52 -41 53 -69 32z"/>
<path d="M2968 2904 c-27 -8 -48 -19 -48 -23 0 -5 15 -19 34 -30 l34 -21 53
25 c30 14 62 25 72 25 33 0 17 18 -27 29 -55 13 -59 13 -118 -5z"/>
<path d="M3810 2910 c-14 -4 -38 -5 -53 -2 -27 4 -28 3 -25 -24 3 -27 6 -29
46 -28 104 2 102 2 102 34 0 32 -16 37 -70 20z"/>
<path d="M3652 2873 c2 -20 9 -28 23 -28 14 0 21 8 23 28 3 23 0 27 -23 27
-23 0 -26 -4 -23 -27z"/>
<path d="M2146 2879 c-17 -10 -13 -17 41 -73 74 -76 86 -96 113 -185 21 -68
32 -83 45 -61 10 16 -23 128 -56 191 -35 66 -95 139 -112 139 -7 0 -20 -5 -31
-11z"/>
<path d="M1701 2871 c-8 -5 -11 -18 -8 -32 3 -13 2 -41 -2 -61 l-9 -37 39 22
c42 24 49 54 11 50 -28 -3 -29 13 -1 22 12 4 19 14 17 23 -4 19 -27 26 -47 13z"/>
<path d="M2061 2836 c-9 -10 -1 -23 35 -60 26 -25 55 -46 66 -46 11 0 28 -5
39 -11 18 -9 19 -8 11 8 -17 31 -110 123 -125 123 -8 0 -20 -6 -26 -14z"/>
<path d="M3710 2810 c-14 -26 -6 -34 50 -50 74 -21 110 -24 110 -7 0 8 2 22 6
30 4 11 -9 17 -53 25 -32 5 -68 13 -80 17 -16 5 -24 1 -33 -15z"/>
<path d="M3060 2800 c-8 -5 -12 -11 -10 -13 52 -41 64 -44 110 -26 l45 17 -37
16 c-42 18 -86 20 -108 6z"/>
<path d="M1992 2788 c-9 -9 -3 -20 25 -49 32 -33 39 -36 60 -26 l24 11 -38 38
c-39 40 -52 45 -71 26z"/>
<path d="M3616 2783 c-4 -10 1 -24 13 -36 19 -19 19 -19 31 2 9 17 9 26 -1 37
-16 19 -35 18 -43 -3z"/>
<path d="M1415 2750 c-38 -22 -103 -56 -142 -75 -54 -26 -73 -40 -73 -54 0
-33 54 -36 130 -8 36 14 95 31 130 37 36 7 76 19 90 26 32 16 100 79 100 92 0
5 -17 10 -37 10 -21 1 -58 4 -83 7 -40 5 -53 1 -115 -35z"/>
<path d="M1729 2745 c-14 -8 -38 -30 -52 -49 -27 -35 -37 -60 -15 -38 9 9 16
8 29 -4 16 -15 19 -14 32 13 9 15 25 38 37 51 11 12 18 27 15 32 -8 13 -15 12
-46 -5z"/>
<path d="M1924 2745 c-3 -8 9 -30 30 -51 34 -35 38 -37 53 -21 16 16 15 19
-17 52 -36 37 -57 44 -66 20z"/>
<path d="M3680 2730 c-9 -17 -4 -24 42 -53 63 -41 99 -60 102 -55 1 2 7 15 13
30 11 25 10 27 -21 38 -18 6 -48 22 -66 35 -41 30 -56 31 -70 5z"/>
<path d="M2480 2693 c-20 -80 -139 -249 -219 -311 -19 -15 -23 -24 -17 -46 6
-25 11 -28 36 -23 23 5 31 1 44 -18 20 -30 49 -32 75 -6 14 14 18 29 14 62 -3
38 3 58 47 144 l51 100 -4 -122 c-3 -98 -1 -123 9 -123 15 0 17 9 33 125 15
109 14 125 -6 125 -16 0 -16 1 0 13 17 11 17 16 2 56 -29 84 -48 91 -65 24z"/>
<path d="M2663 2711 c-73 -27 -72 -25 -66 -85 7 -72 -23 -288 -50 -350 -15
-35 -18 -53 -10 -65 14 -22 52 -26 59 -7 8 21 23 20 47 -1 18 -17 20 -17 43
10 30 35 30 50 2 88 -19 26 -22 41 -21 119 2 122 23 189 75 239 68 66 31 91
-79 52z"/>
<path d="M3032 2703 c-24 -27 -66 -122 -58 -130 2 -3 -4 -30 -15 -60 -23 -69
-23 -70 0 -83 18 -9 22 -4 41 48 11 31 27 71 34 87 22 50 40 145 30 155 -5 5
-18 -1 -32 -17z"/>
<path d="M3559 2714 c-11 -14 -10 -18 6 -30 24 -18 30 -18 46 2 11 14 10 18
-6 30 -24 18 -30 18 -46 -2z"/>
<path d="M1767 2684 c-37 -60 -42 -81 -17 -89 17 -6 20 -12 14 -41 -5 -26 -3
-34 8 -34 10 0 17 25 25 93 6 50 7 96 3 101 -5 4 -19 -9 -33 -30z"/>
<path d="M1834 2675 c-3 -25 -3 -65 0 -90 7 -41 9 -44 28 -34 18 10 19 17 13
72 -3 34 -9 70 -11 80 -9 31 -23 18 -30 -28z"/>
<path d="M2823 2703 c-3 -10 -15 -40 -25 -67 -16 -43 -17 -51 -5 -63 12 -13
19 -6 51 50 20 36 36 72 36 81 0 23 -49 21 -57 -1z"/>
<path d="M3172 2711 c-10 -6 -7 -12 13 -25 23 -15 31 -16 57 -5 l30 12 -24 13
c-27 15 -57 17 -76 5z"/>
<path d="M1900 2680 c0 -16 5 -41 12 -55 10 -23 13 -24 29 -9 17 15 17 18 2
50 -22 45 -43 52 -43 14z"/>
<path d="M2214 2679 c-4 -13 -6 -28 -4 -34 2 -5 13 -44 25 -85 25 -81 45 -103
45 -47 0 35 -32 150 -49 176 -7 11 -11 8 -17 -10z"/>
<path d="M2900 2658 c-6 -24 -21 -65 -31 -92 -23 -59 -24 -72 -4 -80 17 -6 36
20 56 77 7 20 16 37 21 37 4 0 13 18 19 41 11 34 10 42 -2 50 -29 18 -46 9
-59 -33z"/>
<path d="M2063 2667 c-23 -12 -87 -62 -143 -112 -89 -79 -100 -92 -95 -115 7
-28 33 -53 99 -92 49 -29 86 -79 86 -116 0 -32 29 -40 50 -15 13 16 20 19 35
10 14 -7 21 -6 32 9 19 27 12 47 -23 64 -82 40 -144 119 -144 184 0 30 61 86
132 122 62 31 88 52 88 71 0 21 -69 15 -117 -10z"/>
<path d="M3637 2662 c-16 -17 -14 -21 44 -73 33 -30 65 -54 71 -54 6 0 16 8
22 18 9 16 6 23 -23 45 -19 15 -46 39 -60 55 -29 32 -33 33 -54 9z"/>
<path d="M3082 2605 c-13 -35 -21 -68 -18 -73 3 -5 -1 -33 -9 -63 -19 -72 -19
-86 5 -92 16 -4 21 2 30 36 5 23 16 63 25 88 8 25 17 65 20 89 3 24 8 47 12
53 6 9 -14 27 -32 27 -6 0 -21 -29 -33 -65z"/>
<path d="M3484 2636 c-3 -9 -3 -24 1 -33 4 -10 9 -30 11 -45 2 -15 20 -59 39
-98 32 -63 37 -69 55 -60 19 10 19 13 4 48 -8 20 -19 41 -25 47 -5 5 -9 21 -9
35 0 14 -5 31 -12 38 -7 7 -17 26 -22 44 -12 36 -33 48 -42 24z"/>
<path d="M3165 2575 c-9 -36 -15 -71 -12 -79 4 -9 2 -43 -4 -77 -8 -49 -7 -64
3 -70 29 -19 36 -8 43 61 4 39 11 72 15 75 14 8 10 138 -3 147 -21 13 -24 9
-42 -57z"/>
<path d="M3566 2613 c-5 -11 10 -40 41 -86 56 -81 60 -84 81 -64 14 14 13 19
-13 54 -16 21 -31 40 -34 43 -4 3 -7 12 -9 20 -5 21 -32 50 -47 50 -7 0 -16
-8 -19 -17z"/>
<path d="M2151 2601 c-8 -5 -10 -14 -6 -21 4 -7 15 -42 24 -78 19 -72 41 -95
41 -41 0 37 -29 149 -39 149 -3 0 -12 -4 -20 -9z"/>
<path d="M3255 2588 c-7 -32 -9 -100 -7 -190 2 -69 4 -78 21 -78 27 0 30 15
30 154 0 103 -2 125 -15 130 -22 9 -23 8 -29 -16z"/>
<path d="M3415 2554 c3 -31 9 -64 14 -73 5 -9 14 -42 21 -73 13 -57 22 -66 49
-49 11 7 10 18 -4 67 -10 33 -19 70 -20 84 -6 50 -29 100 -48 100 -16 0 -18
-6 -12 -56z"/>
<path d="M3335 2538 c-5 -43 -4 -63 4 -66 6 -2 11 -26 11 -57 0 -67 7 -85 32
-85 18 0 19 5 14 90 -11 171 -47 241 -61 118z"/>
<path d="M2721 2558 c-6 -17 -14 -55 -17 -84 l-7 -53 55 -24 c81 -36 127 -50
145 -43 12 5 4 19 -39 64 -31 32 -70 84 -88 115 -17 31 -33 57 -35 57 -2 0 -8
-14 -14 -32z"/>
<path d="M2076 2562 c-5 -8 30 -161 39 -170 16 -16 24 18 16 68 -15 89 -37
131 -55 102z"/>
<path d="M2012 2518 c-14 -18 6 -118 24 -118 16 0 17 16 8 84 -7 47 -14 55
-32 34z"/>
<path d="M1740 2445 c0 -25 11 -46 40 -80 39 -44 46 -61 52 -115 2 -19 8 -24
25 -23 11 1 27 -4 33 -12 17 -20 37 -19 49 4 8 14 6 22 -8 35 -11 10 -22 27
-25 39 -4 12 -28 36 -54 52 -38 24 -50 39 -62 77 -19 59 -50 73 -50 23z"/>
<path d="M2229 2248 c-3 -29 5 -45 37 -80 49 -55 104 -170 112 -236 l7 -57 55
0 c84 0 103 25 56 74 -14 15 -37 51 -53 81 -23 46 -28 67 -28 134 0 48 -4 81
-11 83 -6 2 -23 -3 -39 -11 -28 -15 -45 -13 -80 11 -25 16 -55 17 -56 1z"/>
<path d="M2709 2175 c-22 -37 -45 -44 -78 -23 -15 9 -23 9 -35 -1 -36 -30 -1
-81 54 -81 60 0 206 -90 240 -147 10 -18 24 -33 30 -33 6 0 30 18 54 40 47 44
53 80 13 80 -56 0 -217 114 -217 153 0 23 -17 47 -32 47 -5 0 -18 -16 -29 -35z"/>
<path d="M1803 2180 c-5 -18 -75 -60 -101 -60 -7 0 -12 -9 -12 -20 0 -11 6
-20 13 -20 8 0 22 -9 32 -20 24 -26 27 -26 81 15 25 19 57 38 70 41 14 4 29
15 35 25 8 16 5 21 -18 30 -15 6 -36 15 -45 20 -28 15 -50 10 -55 -11z"/>
<path d="M2112 2178 c-18 -18 -23 -19 -37 -8 -23 19 -65 -2 -58 -29 8 -32 -4
-66 -43 -116 -41 -54 -39 -80 5 -70 17 3 32 2 36 -4 3 -6 17 -11 30 -11 19 0
26 7 31 28 10 50 35 111 60 147 27 41 30 58 11 73 -10 9 -19 6 -35 -10z m-57
-128 c-9 -18 -19 -30 -21 -27 -3 3 2 19 11 37 9 18 19 30 21 27 3 -3 -2 -19
-11 -37z"/>
<path d="M1636 2018 c-13 -62 -12 -82 5 -86 11 -2 21 8 29 30 10 25 14 29 17
15 3 -12 10 -16 20 -13 8 3 18 6 23 6 4 0 10 7 14 15 3 10 -8 24 -32 40 -50
34 -68 32 -76 -7z"/>
<path d="M3090 1950 c-15 -16 -37 -30 -48 -30 -11 0 -27 -11 -36 -25 -10 -15
-26 -25 -41 -25 -29 0 -41 -16 -25 -35 8 -10 11 -34 8 -65 -4 -37 -1 -50 9
-55 28 -10 33 -5 34 33 l2 37 6 -35 c6 -32 9 -35 41 -34 38 1 38 0 26 61 -8
46 1 67 62 136 27 31 31 41 21 53 -17 20 -28 18 -59 -16z"/>
<path d="M1710 1927 c0 -19 33 -47 54 -47 23 0 56 18 56 31 0 7 -10 9 -24 5
-15 -4 -28 0 -36 9 -15 19 -50 20 -50 2z"/>
<path d="M1925 1906 c-12 -41 -12 -96 1 -107 18 -15 21 -11 33 37 l9 39 1 -41
c1 -46 7 -55 27 -47 8 3 14 20 15 42 l1 36 9 -33 c9 -28 12 -31 30 -22 16 9
19 17 13 48 -3 20 -9 40 -13 43 -12 12 -123 16 -126 5z"/>
<path d="M1604 1895 c3 -9 6 -25 6 -36 0 -11 7 -19 18 -19 13 0 17 8 17 33 0
26 -4 33 -24 35 -19 3 -22 0 -17 -13z"/>
<path d="M1670 1879 c0 -26 52 -79 78 -79 21 0 46 23 35 33 -3 4 -15 7 -25 7
-11 0 -27 13 -36 30 -20 35 -52 41 -52 9z"/>
<path d="M2576 1843 c-3 -4 -43 -8 -89 -9 -45 -1 -86 -3 -91 -3 -4 -1 -6 -11
-2 -24 3 -15 -3 -35 -19 -60 -37 -53 -34 -62 22 -58 11 1 24 -3 28 -8 4 -7 -4
-11 -19 -11 -18 0 -30 -9 -41 -31 -9 -17 -19 -28 -22 -25 -3 3 0 12 7 21 15
18 6 45 -14 45 -14 0 -46 -36 -46 -52 0 -5 7 -8 15 -8 9 0 6 -8 -11 -25 -14
-14 -23 -29 -20 -34 8 -13 114 -10 125 3 4 6 11 23 15 39 5 21 12 27 32 27 24
0 26 3 20 31 -9 46 29 92 96 117 59 22 82 47 58 62 -18 11 -34 13 -44 3z"/>
<path d="M1624 1808 c-4 -6 6 -23 25 -40 51 -46 70 -32 29 22 -23 32 -42 38
-54 18z"/>
<path d="M2131 1782 c-18 -12 -25 -14 -29 -4 -5 15 -38 16 -47 2 -11 -18 16
-40 50 -40 31 0 65 25 65 48 0 16 -10 14 -39 -6z"/>
<path d="M1912 1738 c2 -22 9 -34 21 -36 14 -3 17 4 17 32 0 30 -4 36 -21 36
-17 0 -20 -5 -17 -32z"/>
<path d="M1991 1761 c-12 -8 -13 -14 -3 -35 21 -46 60 -29 42 18 -10 28 -17
31 -39 17z"/>
<path d="M2031 1686 c-10 -12 -9 -17 8 -25 35 -19 91 -11 91 14 0 7 -10 13
-22 13 -13 0 -32 3 -44 7 -13 4 -25 1 -33 -9z"/>
<path d="M2942 1688 c-7 -7 -12 -17 -12 -23 0 -20 -35 -45 -62 -45 -28 0 -85
-47 -72 -59 5 -4 30 -6 56 -3 35 3 47 9 51 23 3 10 21 26 40 35 38 18 53 49
35 71 -13 16 -21 16 -36 1z"/>
<path d="M3022 1687 c-6 -6 -13 -24 -17 -40 -5 -17 -14 -27 -25 -27 -21 0 -65
-50 -53 -60 4 -3 34 -4 66 -2 56 4 57 5 57 33 0 16 7 41 16 54 13 20 14 28 4
40 -15 18 -34 19 -48 2z"/>
<path d="M1941 1678 l-24 -8 23 -25 c22 -23 60 -34 60 -17 0 4 -8 19 -18 33
-14 22 -21 25 -41 17z"/>
<path d="M2186 1599 c-29 -23 -36 -55 -10 -45 9 3 28 6 43 6 19 0 32 8 44 30
l18 30 -34 0 c-20 0 -46 -9 -61 -21z"/>
</g>
</svg>
