<?xml version="1.0" standalone="no"?>
<!DOCTYPE svg PUBLIC "-//W3C//DTD SVG 20010904//EN"
 "http://www.w3.org/TR/2001/REC-SVG-20010904/DTD/svg10.dtd">
<svg version="1.0" xmlns="http://www.w3.org/2000/svg"
 width="1024.000000pt" height="1024.000000pt" viewBox="0 0 1024.000000 1024.000000"
 preserveAspectRatio="xMidYMid meet">
<g transform="translate(0.000000,1024.000000) scale(0.100000,-0.100000)"
fill="#FFF" stroke="none">
<path d="M6880 7148 c-54 -173 -64 -199 -110 -279 -74 -126 -151 -211 -340
-376 -189 -165 -275 -264 -468 -538 -150 -215 -486 -557 -724 -739 l-38 -28
-42 33 c-231 178 -577 537 -745 773 -185 259 -263 345 -493 538 -197 166 -255
251 -376 548 -42 105 -76 175 -84 175 -23 0 -31 -54 -37 -245 -5 -175 -4 -189
20 -268 13 -46 21 -80 17 -75 -61 73 -143 224 -186 343 -35 101 -63 149 -96
166 -41 21 -72 3 -66 -39 12 -81 114 -391 163 -495 l55 -114 -148 149 c-117
118 -163 158 -224 192 -87 48 -147 62 -167 38 -22 -27 -4 -52 89 -121 49 -36
110 -90 135 -119 52 -60 183 -264 157 -245 -10 7 -43 32 -73 56 -104 79 -300
139 -436 133 -12 -1 -27 -10 -33 -22 -21 -38 9 -64 117 -99 147 -49 187 -73
298 -180 60 -57 117 -103 139 -111 20 -7 36 -17 36 -21 0 -12 -10 -10 -106 23
-110 39 -241 46 -271 16 -13 -13 -15 -21 -7 -35 6 -9 117 -72 248 -139 297
-153 357 -193 476 -312 80 -80 104 -112 144 -191 86 -168 142 -253 254 -380
141 -162 201 -223 345 -350 l118 -104 -58 -52 c-32 -28 -71 -59 -88 -67 -16
-8 -77 -38 -135 -65 -113 -55 -275 -170 -299 -214 -22 -38 -6 -80 35 -91 27
-8 37 -5 77 26 48 36 99 52 207 62 36 4 91 13 123 21 47 12 65 13 92 3 28 -11
40 -10 72 3 21 9 68 19 104 22 36 3 90 14 120 25 53 20 59 21 170 6 263 -35
545 -30 791 16 l107 20 51 -26 c76 -39 153 -55 295 -61 202 -10 383 -51 410
-94 3 -5 24 -10 45 -10 51 0 67 26 51 80 -14 46 -66 95 -152 143 -35 20 -91
63 -124 97 -66 67 -89 73 -143 40 -18 -11 -47 -20 -65 -20 -49 0 -133 27 -163
53 l-26 23 114 90 c198 159 398 370 540 569 20 28 62 97 93 155 166 303 264
385 765 645 137 70 155 83 158 107 5 39 -26 52 -112 45 -39 -3 -114 -19 -167
-36 -120 -39 -139 -39 -70 -1 30 16 95 69 145 117 101 98 166 135 308 178 89
27 118 44 118 72 0 48 -107 57 -240 19 -111 -31 -150 -49 -235 -105 -38 -25
-76 -50 -82 -54 -7 -4 11 30 40 75 66 105 189 235 289 305 79 55 99 83 78 108
-28 33 -123 5 -228 -67 -26 -18 -103 -87 -172 -153 -185 -178 -180 -176 -117
-54 33 62 72 161 97 240 23 74 50 154 60 179 41 96 20 141 -49 106 -40 -21
-62 -55 -104 -166 -40 -103 -113 -239 -157 -292 l-28 -33 19 70 c10 39 18 100
18 137 1 61 -42 349 -55 369 -14 23 -26 -1 -64 -123z"/>
</g>
</svg>
